<mxfile host="app.diagrams.net" modified="2021-11-17T11:02:07.615Z" agent="5.0 (Windows NT 10.0; Win64; x64) AppleWebKit/537.36 (KHTML, like Gecko) Chrome/95.0.4638.69 Safari/537.36" etag="R6iNsTeB4-uASlowhc8M" version="15.7.4" type="github">
  <diagram id="igKrxFIecgqECClJfI2o" name="Page-1">
    <mxGraphModel dx="1038" dy="547" grid="1" gridSize="10" guides="1" tooltips="1" connect="1" arrows="1" fold="1" page="1" pageScale="1" pageWidth="827" pageHeight="1169" math="0" shadow="0">
      <root>
        <mxCell id="0" />
        <mxCell id="1" parent="0" />
        <mxCell id="KSL485tz71ZAWiSOoCcB-1" value="USER" style="swimlane;" vertex="1" parent="1">
          <mxGeometry x="80" y="50" width="100" height="200" as="geometry" />
        </mxCell>
        <mxCell id="KSL485tz71ZAWiSOoCcB-2" value="User ID" style="text;html=1;align=center;verticalAlign=middle;resizable=0;points=[];autosize=1;strokeColor=none;fillColor=none;" vertex="1" parent="KSL485tz71ZAWiSOoCcB-1">
          <mxGeometry x="10" y="50" width="60" height="20" as="geometry" />
        </mxCell>
        <mxCell id="KSL485tz71ZAWiSOoCcB-3" value="avater" style="text;html=1;align=center;verticalAlign=middle;resizable=0;points=[];autosize=1;strokeColor=none;fillColor=none;" vertex="1" parent="1">
          <mxGeometry x="95" y="120" width="50" height="20" as="geometry" />
        </mxCell>
        <mxCell id="KSL485tz71ZAWiSOoCcB-4" value="nom" style="text;html=1;align=center;verticalAlign=middle;resizable=0;points=[];autosize=1;strokeColor=none;fillColor=none;" vertex="1" parent="1">
          <mxGeometry x="100" y="140" width="40" height="20" as="geometry" />
        </mxCell>
        <mxCell id="KSL485tz71ZAWiSOoCcB-5" value="prenom" style="text;html=1;align=center;verticalAlign=middle;resizable=0;points=[];autosize=1;strokeColor=none;fillColor=none;" vertex="1" parent="1">
          <mxGeometry x="90" y="160" width="60" height="20" as="geometry" />
        </mxCell>
        <mxCell id="KSL485tz71ZAWiSOoCcB-6" value="pseudo" style="text;html=1;align=center;verticalAlign=middle;resizable=0;points=[];autosize=1;strokeColor=none;fillColor=none;" vertex="1" parent="1">
          <mxGeometry x="95" y="180" width="50" height="20" as="geometry" />
        </mxCell>
        <mxCell id="KSL485tz71ZAWiSOoCcB-7" value="email" style="text;html=1;align=center;verticalAlign=middle;resizable=0;points=[];autosize=1;strokeColor=none;fillColor=none;" vertex="1" parent="1">
          <mxGeometry x="100" y="200" width="40" height="20" as="geometry" />
        </mxCell>
        <mxCell id="KSL485tz71ZAWiSOoCcB-8" value="password" style="text;html=1;align=center;verticalAlign=middle;resizable=0;points=[];autosize=1;strokeColor=none;fillColor=none;" vertex="1" parent="1">
          <mxGeometry x="85" y="220" width="70" height="20" as="geometry" />
        </mxCell>
        <mxCell id="KSL485tz71ZAWiSOoCcB-9" value="" style="endArrow=none;html=1;rounded=0;exitX=1;exitY=0.5;exitDx=0;exitDy=0;entryX=0;entryY=0.5;entryDx=0;entryDy=0;" edge="1" parent="1" source="KSL485tz71ZAWiSOoCcB-1" target="KSL485tz71ZAWiSOoCcB-10">
          <mxGeometry width="50" height="50" relative="1" as="geometry">
            <mxPoint x="390" y="200" as="sourcePoint" />
            <mxPoint x="260" y="150" as="targetPoint" />
          </mxGeometry>
        </mxCell>
        <mxCell id="KSL485tz71ZAWiSOoCcB-10" value="collector" style="ellipse;whiteSpace=wrap;html=1;" vertex="1" parent="1">
          <mxGeometry x="270" y="125" width="110" height="50" as="geometry" />
        </mxCell>
        <mxCell id="KSL485tz71ZAWiSOoCcB-11" value="1,1" style="text;html=1;align=center;verticalAlign=middle;resizable=0;points=[];autosize=1;strokeColor=none;fillColor=none;" vertex="1" parent="1">
          <mxGeometry x="205" y="140" width="30" height="20" as="geometry" />
        </mxCell>
        <mxCell id="KSL485tz71ZAWiSOoCcB-12" value="" style="endArrow=none;html=1;rounded=0;exitX=1;exitY=0.5;exitDx=0;exitDy=0;" edge="1" parent="1" source="KSL485tz71ZAWiSOoCcB-10">
          <mxGeometry width="50" height="50" relative="1" as="geometry">
            <mxPoint x="390" y="200" as="sourcePoint" />
            <mxPoint x="450" y="150" as="targetPoint" />
          </mxGeometry>
        </mxCell>
        <mxCell id="KSL485tz71ZAWiSOoCcB-13" value="Playlist" style="swimlane;" vertex="1" parent="1">
          <mxGeometry x="450" y="80" width="130" height="140" as="geometry" />
        </mxCell>
        <mxCell id="KSL485tz71ZAWiSOoCcB-16" value="temps de addtif" style="text;html=1;align=center;verticalAlign=middle;resizable=0;points=[];autosize=1;strokeColor=none;fillColor=none;" vertex="1" parent="KSL485tz71ZAWiSOoCcB-13">
          <mxGeometry x="15" y="90" width="100" height="20" as="geometry" />
        </mxCell>
        <mxCell id="KSL485tz71ZAWiSOoCcB-15" value="numero film" style="text;html=1;align=center;verticalAlign=middle;resizable=0;points=[];autosize=1;strokeColor=none;fillColor=none;" vertex="1" parent="KSL485tz71ZAWiSOoCcB-13">
          <mxGeometry x="20" y="60" width="80" height="20" as="geometry" />
        </mxCell>
        <mxCell id="KSL485tz71ZAWiSOoCcB-14" value="playlist ID" style="text;html=1;align=center;verticalAlign=middle;resizable=0;points=[];autosize=1;strokeColor=none;fillColor=none;" vertex="1" parent="KSL485tz71ZAWiSOoCcB-13">
          <mxGeometry x="20" y="30" width="70" height="20" as="geometry" />
        </mxCell>
        <mxCell id="KSL485tz71ZAWiSOoCcB-17" value="0,n" style="text;html=1;align=center;verticalAlign=middle;resizable=0;points=[];autosize=1;strokeColor=none;fillColor=none;" vertex="1" parent="1">
          <mxGeometry x="395" y="140" width="30" height="20" as="geometry" />
        </mxCell>
      </root>
    </mxGraphModel>
  </diagram>
</mxfile>
